<svg width="270" height="270" viewBox="0 0 270 270" fill="none" xmlns="http://www.w3.org/2000/svg">
<path d="M270 0H0V270H270V0Z" fill="#111111"/>
<path d="M189.288 91.3218C189.288 88.7154 188.251 86.2122 186.398 84.3692C184.545 82.5261 182.029 81.4943 179.409 81.4943H91.5913C88.9711 81.4943 86.4547 82.5261 84.6019 84.3692C82.7492 86.2122 81.7118 88.7154 81.7118 91.3218V132.944L125.252 113.698C128.483 112.271 131.974 111.54 135.5 111.54C139.026 111.54 142.517 112.271 145.748 113.698L189.288 132.944V91.3218ZM127.816 152.471V129.284L64.1998 157.411C64.8777 176.617 71.4922 195.13 83.1011 210.464C84.2466 209.65 85.4379 208.724 86.7888 207.649C89.4558 205.527 92.847 202.792 97.1828 200.722C101.683 198.573 106.942 197.241 113.546 197.241C120.319 197.241 125.648 198.552 130.174 200.731C134.545 202.834 137.86 205.627 140.423 207.751C143.126 209.992 145.083 211.571 147.515 212.742C149.794 213.839 152.813 214.713 157.454 214.713C161.827 214.713 164.802 213.86 167.162 212.733C169.687 211.528 171.785 209.894 174.606 207.649C177.273 205.527 180.664 202.792 185 200.722C188.105 199.24 191.573 198.153 195.591 197.617C202.306 185.205 206.112 171.457 206.74 157.385L143.184 129.284V152.471C143.184 156.693 139.744 160.115 135.5 160.115C131.256 160.115 127.816 156.693 127.816 152.471ZM204.656 139.735L217.657 145.484L218.644 146.013C220.83 147.389 222.199 149.788 222.22 152.412C222.34 168.395 218.915 184.159 212.263 198.606C214.32 199.167 216.219 199.877 217.992 200.731C222.363 202.834 225.678 205.627 228.24 207.751C231.497 210.454 231.934 215.275 229.218 218.517C226.5 221.757 221.654 222.192 218.395 219.49C215.692 217.249 213.734 215.671 211.303 214.499C209.023 213.402 206.005 212.529 201.363 212.529C196.99 212.529 194.016 213.381 191.655 214.508C189.131 215.713 187.033 217.347 184.211 219.592C181.544 221.715 178.153 224.449 173.817 226.519C169.317 228.668 164.058 230 157.454 230C150.681 230 145.352 228.689 140.826 226.511C136.455 224.407 133.14 221.614 130.577 219.49C127.874 217.249 125.917 215.671 123.485 214.499C121.206 213.402 118.187 212.529 113.546 212.529C109.173 212.529 106.198 213.381 103.838 214.508C101.313 215.713 99.2151 217.347 96.3938 219.592C93.7267 221.715 90.3356 224.449 85.9998 226.519C81.4998 228.668 76.2406 230 69.6369 230C62.8633 230 57.5346 228.689 53.0082 226.511C48.6372 224.407 45.3224 221.614 42.76 219.49C39.5029 216.787 39.0665 211.966 41.7823 208.724C44.4997 205.484 49.3461 205.05 52.6052 207.751C55.3083 209.992 57.2658 211.571 59.6974 212.742C61.5555 213.636 63.908 214.366 67.2271 214.61C54.9271 196.282 48.4163 174.586 48.7803 152.343C48.8303 149.369 50.6102 146.693 53.3427 145.484L66.3438 139.735V91.3218C66.3438 84.6609 69.0014 78.2705 73.7362 73.5605C78.471 68.8506 84.8952 66.2069 91.5913 66.2069H127.816V47.6437C127.816 43.4222 131.256 40 135.5 40C139.744 40 143.184 43.4222 143.184 47.6437V66.2069H179.409C186.105 66.2069 192.529 68.8506 197.264 73.5605C201.999 78.2705 204.656 84.6609 204.656 91.3218V139.735Z" fill="#0D7377"/>
</svg>
