<svg width="270" height="270" viewBox="0 0 270 270" fill="none" xmlns="http://www.w3.org/2000/svg">
<g clip-path="url(#clip0_2631_41)">
<path d="M270 0H0V270H270V0Z" fill="#31393C"/>
<path d="M208.889 40H61.1111C49.5 40 40 49.5 40 61.1111V208.889C40 220.5 49.5 230 61.1111 230H208.889C220.5 230 230 220.5 230 208.889V61.1111C230 49.5 220.5 40 208.889 40ZM103.333 187.778H82.2222V135H103.333V187.778ZM145.556 187.778H124.444V156.111H145.556V187.778ZM145.556 135H124.444V113.889H145.556V135ZM187.778 187.778H166.667V82.2222H187.778V187.778Z" fill="#2176FF"/>
</g>
<defs>
<clipPath id="clip0_2631_41">
<rect width="270" height="270" fill="white"/>
</clipPath>
</defs>
</svg>
