<svg width="270" height="270" viewBox="0 0 270 270" fill="none" xmlns="http://www.w3.org/2000/svg">
<path d="M270 0H0V270H270V0Z" fill="#070C20"/>
<path d="M188.507 92.0517C188.507 89.459 187.475 86.969 185.632 85.1356C183.789 83.3023 181.285 82.2759 178.679 82.2759H91.3212C88.7147 82.2759 86.2114 83.3023 84.3684 85.1356C82.5253 86.969 81.4934 89.459 81.4934 92.0517V133.455L124.805 114.31C128.02 112.89 131.492 112.164 135 112.164C138.508 112.164 141.98 112.89 145.195 114.31L188.507 133.455V92.0517ZM127.356 152.879V129.814L64.0731 157.793C64.7475 176.898 71.3273 195.313 82.8755 210.567C84.0149 209.757 85.2 208.836 86.5438 207.767C89.1969 205.655 92.5703 202.936 96.8834 200.876C101.36 198.739 106.591 197.414 113.161 197.414C119.899 197.414 125.2 198.718 129.702 200.885C134.05 202.977 137.348 205.756 139.897 207.869C142.586 210.097 144.533 211.668 146.952 212.833C149.219 213.924 152.222 214.793 156.839 214.793C161.189 214.793 164.148 213.945 166.497 212.824C169.008 211.625 171.095 210 173.901 207.767C176.555 205.655 179.928 202.936 184.241 200.876C187.329 199.402 190.779 198.321 194.777 197.787C201.456 185.441 205.242 171.765 205.867 157.767L142.644 129.814V152.879C142.644 157.079 139.222 160.483 135 160.483C130.778 160.483 127.356 157.079 127.356 152.879ZM203.794 140.21L216.727 145.929L217.708 146.455C219.883 147.824 221.245 150.21 221.266 152.82C221.385 168.719 217.979 184.4 211.361 198.772C213.407 199.33 215.297 200.036 217.06 200.885C221.408 202.977 224.705 205.756 227.254 207.869C230.494 210.557 230.929 215.353 228.227 218.578C225.524 221.801 220.703 222.233 217.461 219.545C214.772 217.316 212.825 215.746 210.406 214.581C208.139 213.49 205.136 212.621 200.518 212.621C196.168 212.621 193.209 213.468 190.861 214.589C188.35 215.788 186.263 217.414 183.456 219.647C180.803 221.758 177.43 224.478 173.117 226.538C168.64 228.675 163.409 230 156.839 230C150.101 230 144.8 228.696 140.298 226.529C135.95 224.436 132.652 221.658 130.103 219.545C127.414 217.316 125.467 215.746 123.048 214.581C120.781 213.49 117.778 212.621 113.161 212.621C108.811 212.621 105.852 213.468 103.503 214.589C100.992 215.788 98.9051 217.414 96.0985 219.647C93.4454 221.758 90.072 224.478 85.759 226.538C81.2825 228.675 76.0509 230 69.4818 230C62.7436 230 57.4428 228.696 52.9401 226.529C48.592 224.436 45.2946 221.658 42.7455 219.545C39.5055 216.856 39.0714 212.061 41.773 208.836C44.4761 205.613 49.2972 205.181 52.5392 207.869C55.2281 210.097 57.1755 211.668 59.5943 212.833C61.4427 213.723 63.7828 214.448 67.0845 214.691C54.8489 196.46 48.3722 174.878 48.7343 152.752C48.7841 149.794 50.5547 147.131 53.2728 145.929L66.2059 140.21V92.0517C66.2059 85.4259 68.8496 79.0691 73.5596 74.3839C78.2696 69.6987 84.6602 67.069 91.3212 67.069H127.356V48.6034C127.356 44.4042 130.778 41 135 41C139.222 41 142.644 44.4042 142.644 48.6034V67.069H178.679C185.34 67.069 191.73 69.6987 196.44 74.3839C201.15 79.0691 203.794 85.4259 203.794 92.0517V140.21Z" fill="#0078FF"/>
</svg>
