<svg width="1280" height="720" viewBox="0 0 1280 720" fill="none" xmlns="http://www.w3.org/2000/svg">
<path d="M1280 0H0V720H1280V0Z" fill="#111111"/>
<path d="M693.288 316.322C693.288 313.715 692.251 311.212 690.398 309.369C688.545 307.526 686.029 306.494 683.409 306.494H595.591C592.971 306.494 590.455 307.526 588.602 309.369C586.749 311.212 585.712 313.715 585.712 316.322V357.944L629.252 338.698C632.483 337.271 635.974 336.54 639.5 336.54C643.026 336.54 646.517 337.271 649.748 338.698L693.288 357.944V316.322ZM631.816 377.471V354.284L568.2 382.411C568.878 401.617 575.492 420.13 587.101 435.464C588.247 434.65 589.438 433.724 590.789 432.649C593.456 430.527 596.847 427.792 601.183 425.722C605.683 423.573 610.942 422.241 617.546 422.241C624.319 422.241 629.648 423.552 634.174 425.731C638.545 427.834 641.86 430.627 644.423 432.751C647.126 434.992 649.083 436.571 651.515 437.742C653.794 438.839 656.813 439.713 661.454 439.713C665.827 439.713 668.802 438.86 671.162 437.733C673.687 436.528 675.785 434.894 678.606 432.649C681.273 430.527 684.664 427.792 689 425.722C692.105 424.24 695.573 423.153 699.591 422.617C706.306 410.205 710.112 396.457 710.74 382.385L647.184 354.284V377.471C647.184 381.693 643.744 385.115 639.5 385.115C635.256 385.115 631.816 381.693 631.816 377.471ZM708.656 364.735L721.657 370.484L722.644 371.013C724.83 372.389 726.199 374.788 726.22 377.412C726.34 393.395 722.915 409.159 716.263 423.606C718.32 424.167 720.219 424.877 721.992 425.731C726.363 427.834 729.678 430.627 732.24 432.751C735.497 435.454 735.934 440.275 733.218 443.517C730.5 446.757 725.654 447.192 722.395 444.49C719.692 442.249 717.734 440.671 715.303 439.499C713.023 438.402 710.005 437.529 705.363 437.529C700.99 437.529 698.016 438.381 695.655 439.508C693.131 440.713 691.033 442.347 688.211 444.592C685.544 446.715 682.153 449.449 677.817 451.519C673.317 453.668 668.058 455 661.454 455C654.681 455 649.352 453.689 644.826 451.511C640.455 449.407 637.14 446.614 634.577 444.49C631.874 442.249 629.917 440.671 627.485 439.499C625.206 438.402 622.187 437.529 617.546 437.529C613.173 437.529 610.198 438.381 607.838 439.508C605.313 440.713 603.215 442.347 600.394 444.592C597.727 446.715 594.336 449.449 590 451.519C585.5 453.668 580.241 455 573.637 455C566.863 455 561.535 453.689 557.008 451.511C552.637 449.407 549.322 446.614 546.76 444.49C543.503 441.787 543.066 436.966 545.782 433.724C548.5 430.484 553.346 430.05 556.605 432.751C559.308 434.992 561.266 436.571 563.697 437.742C565.556 438.636 567.908 439.366 571.227 439.61C558.927 421.282 552.416 399.586 552.78 377.343C552.83 374.369 554.61 371.693 557.343 370.484L570.344 364.735V316.322C570.344 309.661 573.001 303.27 577.736 298.561C582.471 293.851 588.895 291.207 595.591 291.207H631.816V272.644C631.816 268.422 635.256 265 639.5 265C643.744 265 647.184 268.422 647.184 272.644V291.207H683.409C690.105 291.207 696.529 293.851 701.264 298.561C705.999 303.27 708.656 309.661 708.656 316.322V364.735Z" fill="#0D7377"/>
</svg>
