<svg width="32" height="32" viewBox="0 0 32 32" fill="none" xmlns="http://www.w3.org/2000/svg">
<g clip-path="url(#clip0_2661_2)">
<path d="M26 0H6C2.68629 0 0 2.68629 0 6V26C0 29.3137 2.68629 32 6 32H26C29.3137 32 32 29.3137 32 26V6C32 2.68629 29.3137 0 26 0Z" fill="#111111"/>
<path d="M20.5058 12.3218C20.5058 12.1024 20.4189 11.8916 20.2637 11.7364C20.1085 11.5811 19.8977 11.4943 19.6782 11.4943H12.3218C12.1023 11.4943 11.8915 11.5811 11.7363 11.7364C11.5811 11.8916 11.4942 12.1023 11.4942 12.3218V15.8269L15.1415 14.2062C15.4122 14.086 15.7046 14.0244 16 14.0244C16.2954 14.0244 16.5878 14.086 16.8585 14.2062L20.5058 15.8269V12.3218ZM15.3563 17.4713V15.5187L10.0272 17.8872C10.084 19.5046 10.6381 21.0636 11.6106 22.3549C11.7065 22.2863 11.8063 22.2083 11.9195 22.1178C12.1429 21.9391 12.427 21.7088 12.7902 21.5345C13.1671 21.3535 13.6077 21.2414 14.1609 21.2414C14.7283 21.2414 15.1747 21.3518 15.5539 21.5352C15.92 21.7124 16.1977 21.9476 16.4124 22.1264C16.6388 22.3151 16.8028 22.4481 17.0065 22.5467C17.1974 22.6391 17.4503 22.7126 17.8391 22.7126C18.2054 22.7126 18.4546 22.6409 18.6523 22.546C18.8638 22.4445 19.0396 22.3069 19.2759 22.1178C19.4993 21.9391 19.7834 21.7088 20.1466 21.5345C20.4067 21.4097 20.6972 21.3182 21.0338 21.273C21.5963 20.2278 21.9151 19.0701 21.9678 17.8851L16.6437 15.5187V17.4713C16.6437 17.8268 16.3555 18.1149 16 18.1149C15.6445 18.1149 15.3563 17.8268 15.3563 17.4713ZM21.7932 16.3987L22.8823 16.8829L22.9649 16.9274C23.1481 17.0433 23.2628 17.2453 23.2645 17.4662C23.2745 18.8122 22.9877 20.1397 22.4304 21.3563C22.6027 21.4036 22.7618 21.4634 22.9103 21.5352C23.2765 21.7124 23.5541 21.9476 23.7688 22.1264C24.0416 22.3541 24.0782 22.76 23.8507 23.033C23.6231 23.3059 23.2171 23.3424 22.9441 23.1149C22.7176 22.9262 22.5536 22.7933 22.35 22.6947C22.159 22.6023 21.9062 22.5287 21.5173 22.5287C21.151 22.5287 20.9018 22.6005 20.7041 22.6954C20.4926 22.7969 20.3169 22.9345 20.0805 23.1236C19.8571 23.3023 19.573 23.5325 19.2098 23.7069C18.8329 23.8878 18.3923 24 17.8391 24C17.2717 24 16.8253 23.8896 16.4461 23.7062C16.08 23.529 15.8023 23.2938 15.5876 23.1149C15.3612 22.9262 15.1972 22.7933 14.9935 22.6947C14.8026 22.6023 14.5497 22.5287 14.1609 22.5287C13.7946 22.5287 13.5454 22.6005 13.3477 22.6954C13.1362 22.7969 12.9604 22.9345 12.7241 23.1236C12.5007 23.3023 12.2166 23.5325 11.8534 23.7069C11.4764 23.8878 11.0359 24 10.4827 24C9.91525 24 9.46887 23.8896 9.08969 23.7062C8.72353 23.529 8.44586 23.2938 8.2312 23.1149C7.95836 22.8873 7.9218 22.4813 8.14931 22.2083C8.37694 21.9355 8.78292 21.8989 9.05593 22.1264C9.28237 22.3151 9.44635 22.4481 9.65005 22.5467C9.8057 22.622 10.0028 22.6835 10.2808 22.704C9.25044 21.1606 8.70503 19.3336 8.73552 17.4605C8.73971 17.2101 8.88882 16.9846 9.11771 16.8829L10.2068 16.3987V12.3218C10.2068 11.7609 10.4294 11.2228 10.8261 10.8261C11.2227 10.4295 11.7609 10.2069 12.3218 10.2069H15.3563V8.64368C15.3563 8.28818 15.6445 8 16 8C16.3555 8 16.6437 8.28818 16.6437 8.64368V10.2069H19.6782C20.2391 10.2069 20.7773 10.4295 21.1739 10.8261C21.5706 11.2228 21.7932 11.7609 21.7932 12.3218V16.3987Z" fill="#0D7377"/>
</g>
<defs>
<clipPath id="clip0_2661_2">
<rect width="32" height="32" fill="white"/>
</clipPath>
</defs>
</svg>
